<svg width="166" height="143" viewBox="0 0 166 143" fill="none" xmlns="http://www.w3.org/2000/svg">
<path id="Vector" fill-rule="evenodd" clip-rule="evenodd" d="M150.936 140.068C150.936 140.068 147.712 130.924 137.962 134.294C128.212 137.664 126.126 137.863 126.126 137.863C126.126 137.863 126.209 103.118 112.679 105.47C99.1389 107.822 117.967 132.238 118.906 137.997C119.843 143.754 93.9614 147.587 91.6582 125.069C89.36 102.556 97.7342 96.3117 88.8589 93.9987C79.9886 91.6906 78.348 105.616 80.076 112.947C81.804 120.277 91.293 133.629 89.2336 137.734C87.1744 141.839 65.0536 133.875 66.8899 119.121C68.7261 104.368 81.0285 79.6224 68.1321 75.8171C55.2376 72.0172 49.4971 84.2871 51.7734 95.7188C54.0502 107.15 61.2831 121.651 58.2404 125.4C55.1983 129.15 19.3978 84.1403 36.2259 66.0497C44.7125 56.9307 50.8033 53.7679 54.4029 51C49.3811 32.9724 1.07765 50.483 0.304426 37.6162C-1.18331 13.0434 43.6242 38.7802 58.0626 40.7851C57.9763 40.1404 57.8649 39.4608 57.7235 38.7203C54.9803 24.1369 67.9706 -12.0092 102.032 4.33464C136.095 20.678 139.322 28.1648 120.461 28.2758C101.6 28.3891 88.4903 39.6107 93.213 47.3313C97.9358 55.0519 111.832 47.9267 122.968 41.6814C134.102 35.4315 147.833 35.5648 154.287 47.7006C160.74 59.8364 169.701 85.6876 151.807 73.0212C133.912 60.3548 116.009 51.6345 109.218 58.5845C102.421 65.5394 105.012 75.2332 121.5 76.228C137.989 77.2228 163.084 76.3909 165.743 94.2098C168.401 112.029 147.277 94.2428 137.579 90.7084C127.876 87.1771 113.896 85.8783 119.741 95.788C125.581 105.702 155.948 103.374 157.907 111.653C159.87 119.928 148.268 119.553 150.923 140.062L150.936 140.068ZM81.3592 38.1671C77.5421 41.9842 72.2952 42.93 69.6416 40.2787C66.987 37.6264 67.927 32.3775 71.7441 28.5605C75.5611 24.7434 80.8081 23.7976 83.4666 26.4538C86.1212 29.1061 85.1762 34.3501 81.3592 38.1671ZM92.9531 72.4531C90.8259 74.5804 87.8997 75.1104 86.4187 73.6306C84.9376 72.1508 85.4618 69.2305 87.5938 67.0985C89.7211 64.9712 92.6472 64.4413 94.1283 65.921C95.6094 67.4009 95.0852 70.3211 92.9531 72.4531Z" fill="#482F28" fill-opacity="0.1"/>
</svg>
