<svg width="84" height="82" viewBox="0 0 84 82" fill="none" xmlns="http://www.w3.org/2000/svg">
<g id="Group 6264">
<path id="Vector" opacity="0.9" fill-rule="evenodd" clip-rule="evenodd" d="M25.9072 0.761431C25.9117 0.763144 25.9162 0.764864 25.92 0.766851C25.9354 0.773302 25.9505 0.780645 25.9663 0.787711C26.848 1.16872 27.3171 2.13902 27.069 3.06691C23.2349 24.8683 29.4384 41.664 49.4346 53.4311C50.1948 53.8017 50.6256 54.6226 50.5004 55.459C50.4917 55.5176 50.4809 55.5749 50.4671 55.6321C50.4626 55.6503 50.4573 55.6682 50.4525 55.6858C50.441 55.7265 50.4292 55.7665 50.4153 55.8067C50.4045 55.8373 50.3922 55.8679 50.3799 55.8985C50.37 55.9244 50.3594 55.9505 50.3479 55.9763C50.3281 56.0184 50.3069 56.0604 50.2838 56.1017C50.2775 56.1141 50.2709 56.1259 50.264 56.1386C49.8176 56.9165 48.8947 57.2865 48.0338 57.0323C25.3182 52.3787 9.45941 60.6823 -2.30846 79.4144C-2.72387 80.2503 -3.67791 80.6719 -4.57583 80.4156C-4.61591 80.4053 -4.65737 80.3919 -4.69669 80.3783C-4.72291 80.3693 -4.74816 80.3591 -4.77342 80.3488C-4.78921 80.3433 -4.80465 80.3368 -4.81982 80.331C-5.70217 79.9503 -6.17224 78.9811 -5.92479 78.0535C-2.09919 56.2465 -8.29371 39.4544 -28.2892 27.687C-29.0485 27.3167 -29.4797 26.4982 -29.3569 25.6629C-29.3558 25.6572 -29.3546 25.6515 -29.3537 25.6452C-29.3452 25.5911 -29.3346 25.5369 -29.3221 25.4833C-29.3171 25.4648 -29.3123 25.4471 -29.307 25.4292C-29.2957 25.388 -29.2833 25.3477 -29.2694 25.3075C-29.2586 25.2769 -29.2469 25.2465 -29.2337 25.2163C-29.2238 25.1904 -29.2132 25.1643 -29.2017 25.1385C-29.1822 25.0958 -29.161 25.0538 -29.1376 25.0131C-29.1313 25.0007 -29.125 24.9883 -29.1184 24.9765C-29.0881 24.9231 -29.0546 24.872 -29.0197 24.8225C-28.541 24.1455 -27.6852 23.8475 -26.8904 24.0815C-4.17241 28.7318 11.6776 20.4255 23.4571 1.69413C23.8738 0.857647 24.8289 0.437104 25.7284 0.694874C25.7678 0.706948 25.8075 0.719643 25.8465 0.734121C25.8688 0.741188 25.8906 0.748529 25.9117 0.756145L25.9072 0.761431Z" fill="#E5DEE0"/>
<path id="Vector_2" opacity="0.9" fill-rule="evenodd" clip-rule="evenodd" d="M73.2889 2.46248C73.2908 2.46321 73.2927 2.46394 73.2944 2.46478C73.3009 2.46752 73.3073 2.47063 73.314 2.47363C73.6882 2.63534 73.8873 3.04713 73.782 3.44091C72.1552 12.6931 74.788 19.821 83.2738 24.8151L83.2735 24.8152C83.5961 24.9725 83.7792 25.3207 83.7261 25.6757L83.7263 25.6756C83.7226 25.7005 83.7178 25.7249 83.7119 25.7492C83.7101 25.7569 83.7078 25.7645 83.7058 25.772C83.7009 25.7892 83.6959 25.8062 83.69 25.8232C83.6854 25.8363 83.6802 25.8492 83.675 25.8622C83.6707 25.8732 83.6662 25.8843 83.6614 25.8952C83.653 25.9131 83.644 25.9309 83.6342 25.9484C83.6315 25.9537 83.6287 25.9587 83.6258 25.9641C83.4363 26.2942 83.0447 26.4513 82.6794 26.3434C73.0397 24.3681 66.31 27.8918 61.3164 35.8413L61.3161 35.8414C61.1399 36.1962 60.7353 36.3749 60.3542 36.2662L60.354 36.2656C60.3539 36.2654 60.3536 36.2655 60.3536 36.2655C60.3366 36.2611 60.3196 36.2561 60.303 36.2504C60.2918 36.2465 60.2811 36.2422 60.2704 36.2378C60.2637 36.2355 60.2571 36.2327 60.2507 36.2303C59.8763 36.0687 59.6768 35.6574 59.7818 35.2637C61.4049 26.0092 58.7759 18.8827 50.2905 13.8885L50.2908 13.8884C49.9685 13.7313 49.7853 13.384 49.8373 13.0295C49.8378 13.0271 49.8383 13.0247 49.8387 13.022C49.8423 12.9991 49.8468 12.9761 49.8521 12.9533C49.8543 12.9455 49.8563 12.938 49.8585 12.9304C49.8633 12.9129 49.8686 12.8958 49.8745 12.8787C49.8791 12.8657 49.884 12.8528 49.8896 12.84C49.8938 12.829 49.8983 12.8179 49.9032 12.807C49.9115 12.7889 49.9205 12.7711 49.9304 12.7538C49.9331 12.7485 49.9358 12.7433 49.9386 12.7383C49.9514 12.7156 49.9656 12.6939 49.9804 12.6729C50.1836 12.3856 50.5467 12.2591 50.884 12.3584C60.5247 14.3323 67.2507 10.8074 72.2492 2.85827L72.2495 2.85815C72.4263 2.50317 72.8313 2.32482 73.2131 2.43423C73.2298 2.43936 73.2466 2.44474 73.2631 2.45089C73.2726 2.45389 73.2819 2.457 73.2908 2.46024L73.2889 2.46248Z" fill="#E5DEE0"/>
</g>
</svg>
